<?xml version="1.0" encoding="utf-8"?>
<!-- Generator: Adobe Illustrator 18.1.1, SVG Export Plug-In . SVG Version: 6.00 Build 0)  -->
<svg version="1.1" id="Layer_1" xmlns="http://www.w3.org/2000/svg" xmlns:xlink="http://www.w3.org/1999/xlink" x="0px" y="0px"
	 viewBox="0 0 1600 900" enable-background="new 0 0 1600 900" xml:space="preserve">
<path fill="#004236" d="M1181.4,513c-3.8,0.5-6.7,1.5-9.3,1.1c-7.9-1.2-15.7-2.9-23.5-4.4c-14.5-2.9-29.1-5.7-43.5-8.8
	c-1.5-0.3-3.8-1.9-4-3.1c-2-18-9.8-34.1-16.6-50.6c-2.1-5.2-4.3-10.4-7.1-17c-4.7,21.2-8.7,40.9-4.8,61.9c-8-1.5-15.3-4.2-22.6-4.1
	c-23,0.3-44.4-8.2-66.8-10.7c-9.4-1.1-19-0.2-28.5-0.2c-12.7,0-25.3,0-38-0.2c-2.3,0-5.6,1.4-6-3.1c0-0.4-2.6-0.9-3.9-0.9
	c-10-0.1-20-0.2-30-0.3c-1.8,0-3.6-0.2-5.9-0.3c2.8-18-6.1-33-10.7-49c-0.9-3.2-2.3-4.5-5.9-4.4c-8.7,0.3-17.3-0.1-26,0.1
	c-1.5,0-3.9,1-4.3,2.1c-5,16-9.8,32.1-14.4,48.2c-0.5,1.9-0.4,4-0.6,6.3c-21.8,0-43.5,0-65.5,0c0.3-1.2,0.5-2.2,0.8-3.8
	c-15,0-29.7,0-45,0c0.8,2,1.5,3.8,2.5,6.5c-24.7,3-49.1,5.9-73.9,8.9c0.5-3.1,0.9-5.3,1.3-8.4c-14.5,1.7-28.6,3.4-43,5
	c1.6-7.5,3.4-14.6,4.6-21.8c2.9-16.9-0.5-33.5-2.4-50.2c-3.7-32.3-7.7-64.5-11.6-96.7c-0.3-2.1-0.6-4.2-1.1-7.4
	c-8.8,3.3-17,6.5-26.1,9.9c0.8-5.2,1.6-10.2,2.6-16.1c-11.3,2.2-21.4,5.5-31,10.6c-0.9,0.5-1.2,3.2-0.9,4.7
	c5.8,27.7,11.7,55.4,17.7,83c4.7,21.8,9.2,43.7,14.8,65.2c2.7,10.3,7.9,20,12,30c0.6,1.5,1.6,2.8,2.6,4.6
	c-24,5.2-47.4,10.3-71.4,15.5c0.3-4,0.6-7.4,0.9-11.6c-14.2,3.1-27.8,6-42,9c0.7-4.5,1.2-8.3,1.8-12.2c2.7-17.2-1.3-33.8-5-50.4
	c-9.3-42.6-18.6-85.2-28.1-127.7c-2.6-11.9-7.1-23.1-15.1-33.1c0.4,3.6,0.8,7.2,1.2,10.8c0.5,3.8,1.1,7.6,1.6,11.6
	c-27.7,2.8-53.9,10.5-80.3,19.7c5.3,12.7,10.4,24.9,15.5,37.2c24.2,57.5,48.4,115.1,72.6,172.6c8.9,21.2,20.9,40.5,37.2,56.9
	c0.7,0.7,1.3,1.5,2.5,2.8c-37,15.5-73.5,30.9-110.8,46.5c-0.3-5.9-0.6-11.3-1-17.5c-13.1,5.4-25.4,10.6-39,16.2
	c0-5.4,0.1-9.9,0-14.4c-0.4-24.2-7.5-46.8-16.8-68.9c-24.6-58.4-49.1-116.9-73.7-175.4c-0.8-1.8-1.6-3.6-2.6-5.8
	c-22,11-42.6,23.4-61,41c-1-9.4-1.8-17.9-2.8-27.2c-13.6,8.1-24.6,18.3-35.7,30.3c-0.7-6.7-1.3-12.2-1.8-17.7
	c-2.3-24.7-4.4-49.4-7-74.1c-0.6-5.7,0.9-8.3,6.4-10.6c84.6-35.3,169.2-70.8,253.7-106.3c1.3-0.6,2.7-1,4.4-1.6
	c1.3,9.4,2.6,18.5,4,28.3c8.5-3.5,16.6-6.9,25.4-10.5c2.2,15.8,4.3,31.1,6.6,47.2c28.4-6.2,56.3-12.2,84.8-18.4
	c-1,8.2-1.8,15.5-2.8,23.6c8.6-1.9,16.2-3.4,23.7-5.4c1.2-0.3,2.2-2.7,2.5-4.2c1.3-6.3,2.4-12.8,3.5-19.2c0.5-2.8,1.5-4.1,4.7-4.5
	c46.5-5.5,92.9-11.1,139.4-16.7c11.4-1.4,22.8-2.8,34.2-4.1c1.5-0.2,2.9,0,4.9,0c-0.8,6.2-1.6,12.2-2.5,19.3c10-1.1,19.6-2.2,30-3.3
	c-2.3,16.4-4.6,32.5-6.7,47.6c-17.4-0.7-34.1-1.3-51.8-2c1,8.8,1.8,16.3,2.7,23.8c4.2,34.9,8.4,69.8,12.6,104.7
	c1.8,14.7,3.3,29.5,9,43.4c0.6,1.5,1.3,3,2.6,5.8c5.3-7.9,10.9-14.5,14.4-22c10-21,19.5-42.3,28.5-63.8
	c16.6-39.4,32.8-79,48.8-118.7c3.8-9.4,6.1-19.3,9.3-28.9c0.4-1.1,1.8-2.7,2.7-2.7c18.8-0.2,37.6-0.1,56.3-0.1
	c1,4.7,1.9,8.4,2.6,12.1c0.5,2.7,1.9,3.8,4.8,3.7c7.1-0.2,14.3-0.1,20.5-0.1c26.3,69.7,53.8,138.1,82.5,206.2
	c7-11.8,9.7-24.5,12.2-37.2c8.6-43.3,17.1-86.5,25.7-129.8c0.8-3.9,0.4-7.3-1.6-10.9c-7.9-14-15.5-28.3-23.7-43.6
	c7.1,1.3,13.2,2.4,19.2,3.6c23,4.5,46,9.2,69.1,13.6c3.8,0.7,6,2.2,6.3,6.1c0.3,3.2,2,4.8,5.4,5.3c6.1,0.8,12,2.6,18.1,3.5
	c3.6,0.5,4.8,2.2,6,5.4c8.4,23.4,17.2,46.8,26.7,70c6-25.1,12.9-49.8,5.5-76.7c28.9,5.7,56.8,11.2,85.5,16.9c-1.5,2.7-2.8,5-4.4,8
	c9.8,2,19.2,3.9,28.6,5.8c0.1,0.4,0.3,0.8,0.2,1c-11.6,18.5-15,39.7-19.1,60.6c-6.4,32.5-13,64.9-19,97.5c-2.3,12.7-3,25.8-4.6,38.7
	c-0.6,4.7,0.5,8.9,3.2,12.7c3.9,5.5,7.8,11.1,12.6,17.9c2.9-8.3,5.3-15.2,7.9-22.7c3,6.1,4.9,11.9,8.3,16.7c6,8.5,13,16.4,19.5,24.5
	c3.5,4.4,8,4.6,13.1,3.4c12.5-3,20.2-12.5,22.6-27.5c1.5-9.7,0.1-19-4.3-27.7c-4.7-9-9.9-17.7-15.1-26.4c-11.9-19.7-22.4-40-29.7-62
	c-19.4-58.2,19.4-119.5,75.4-133.9c24.9-6.4,49.5-5.1,73.2,3.7c29.6,11,58.3,24.5,85.2,41.3c4.9,3.1,9.5,6.7,14,10.4
	c1.1,0.9,2,3.2,1.6,4.4c-8.4,25.1-17,50.1-25.6,75.1c-0.1,0.2-0.5,0.4-0.7,0.6c-6.7-9-13.4-18-21.1-28.2
	c-4.1,11.7-7.5,21.7-11.4,32.8c-1.6-2.6-2.9-4.6-4.1-6.6c-8.1-13.3-16.2-26.5-28.6-36.3c-8.4-6.7-12.7-6.1-18.7,3.1
	c-6.4,9.8-7.5,20.8-3.8,31.7c2.9,8.4,7.1,16.5,11.8,24.1c13.2,21.6,25.6,43.5,34.2,67.6c23.2,64.8-21.2,136.7-89.8,146
	c-13,1.8-25.9,0.8-38.8-1.3c-10.8-1.7-21.9-1.9-32.7-4c-35.7-6.9-67.5-22.1-95.2-45.9c-9.3-8-9.4-7.9-5.4-19.5
	C1168.7,550.1,1174.8,532.2,1181.4,513z M1432.3,395.9c0.7-1.8,1.2-3.1,1.6-4.3c8-23.5,15.9-46.9,24.1-70.3c1.4-3.9,0.5-6-2.6-8.3
	c-20.7-15.8-43.2-28.1-68.1-36c-27.4-8.7-54.5-9-81.6,2c-42.2,17.1-73.7,68.8-59.2,117.8c5.9,19.8,14.5,38.2,24.8,56
	c6.4,10.9,13.2,21.6,19.2,32.7c8.1,14.8,9.7,30.2,3.2,46.2c-5.8,14.1-18.5,22.3-33.6,20.5c-5.7-0.7-11.5-2.3-16.6-4.8
	c-22.3-10.8-37.3-28.5-46.7-51.2c-0.6-1.4-1.2-2.9-1.9-4.5c-0.7,0.7-1,0.9-1.1,1.1c-9.4,27.5-18.9,55.1-28.1,82.7
	c-0.4,1.3,0.6,3.8,1.8,4.8c18.2,15.9,38,29.1,60.8,37.7c25.3,9.6,50.9,15.5,78.1,10.3c52.1-9.9,91.5-58.1,90.4-111.1
	c-0.5-21.9-7.7-42.2-17.7-61.4c-9.2-17.5-19.6-34.4-29.3-51.7c-4.9-8.7-7.9-17.9-7-28.2c1.2-13.8,8.4-23.5,20.6-26.3
	c7.5-1.7,14.9-0.7,22.1,2c12.2,4.6,22.2,12.1,30.3,22.2C1421.5,380.7,1426.6,388.1,1432.3,395.9z M367.4,222.8
	c-1.4,0.4-1.9,0.4-2.4,0.6c-83,34.8-166,69.7-249.1,104.4c-2.9,1.2-3.4,2.9-3.2,5.7c2,20.6,3.8,41.1,5.7,61.7
	c0.5,5.7,1.1,11.3,1.8,18c13.5-13.3,28-23.4,43.5-31.9c15.4-8.4,31.3-16.2,47.2-24.4c1.2,2.5,2,4.1,2.7,5.7
	c26.9,64.1,53.8,128.3,80.8,192.4c8,19.1,15.7,38.2,18.1,59c0.9,7.6,1.3,15.2,2,23.6c37.3-15.6,74.1-31.1,111.4-46.7
	c-1-1.3-1.6-2.1-2.3-2.8c-16.2-16.1-28.2-35-37-55.9c-29.2-69.3-58.3-138.7-87.5-208c-0.4-0.9-0.5-1.8-0.9-2.9
	c26.1-9,52.2-16.7,80-19.4C374.6,275.5,371,249.3,367.4,222.8z M1170.1,508.5c0.1-2.4,0.2-4,0.3-5.6c1.7-18.9,2.3-38,5.4-56.6
	c5.7-34,12.9-67.7,19.6-101.4c3.1-15.6,5.6-31.5,12.6-46.1c1.9-4,4.1-7.9,6.5-12.4c-23.3-4.6-46.2-9.1-69.5-13.7
	c0.1,2,0.3,3.2,0.3,4.3c0,10.1,1.2,20.4-0.3,30.3c-3.5,22.5-8.2,44.8-12.5,67.2c-1.6,8.4-3.4,16.8-5,25.2c-4.4-8-7.9-16.1-11.1-24.2
	c-15.1-38.4-33.3-75.6-45.3-115.2c-0.4-1.3-2.4-2.7-3.9-3c-23.5-4.8-47-9.4-70.5-14c-1.3-0.3-2.7-0.2-4.8-0.3
	c6.6,12.2,13.1,23.7,19,35.4c1.4,2.8,2,6.7,1.4,9.8c-6.6,34.8-13.3,69.6-20.5,104.3c-5.3,25.6-7.7,52.2-22,75.2
	c-0.1,0.2,0,0.6,0,1.3c22.8,4.5,45.7,9,67.5,13.3c0.5-12.7-0.1-24.8,1.8-36.4c4.3-26.1,9.8-52,14.8-78c0.3-1.3,0.6-2.6,1.3-5.3
	c7.5,18,14.7,34.5,21.2,51.2c10.2,26.5,24.3,51.6,29.6,79.9c0.2,1.1,2.1,2.3,3.4,2.7c5.3,1.3,10.7,2.3,16.1,3.3
	C1140.1,502.5,1154.7,505.4,1170.1,508.5z M947.2,467.1c-0.6-1.1-0.9-1.8-1.3-2.5c-6-11.3-12.8-22.3-17.7-34
	c-16.5-39.8-32.4-79.9-48.1-120c-8.9-22.6-16.9-45.5-25.5-68.2c-0.4-1.2-2.6-2.4-4-2.4c-14.2-0.2-28.3-0.2-42.5-0.3
	c-2.7,0-3.6,1-4.3,3.5c-2.2,7.5-4.6,15-7.5,22.2c-16.7,41-33.5,81.9-50.4,122.8c-10.8,26.1-20.4,52.8-36.6,76.4
	c-0.1,0.2,0.1,0.6,0.2,1.3c22,0,44,0,65.6,0c1.1-6.1,1.6-12,3.2-17.5c3.6-12.1,7.9-24,11.6-36.1c0.9-2.9,2.5-3.3,5.1-3.3
	c20.7,0.3,41.3,0.5,62,0.5c3.1,0,4.8,0.9,5.7,4c5.2,17.6,13.9,34.2,14.7,53.4C900.6,467.1,923.6,467.1,947.2,467.1z M515.1,309.2
	c20.8-11.2,42.4-14.7,64.4-18.2c1.2,9.5,2.3,18.6,3.4,27.6c3.9,32.2,7.7,64.5,11.6,96.7c2,16.7,4.5,33.4,1.5,50.2
	c-0.7,3.8-1.4,7.6-2.3,12c25.4-3,49.9-6,74.8-9c-0.7-1.7-1-2.6-1.5-3.5c-7.8-14.5-11-30.2-12.9-46.3c-4.1-35-8.4-70.1-12.6-105.1
	c-1.2-9.7-2.3-19.4-3.5-30.4c17.5,0.6,34.4,1.3,51.8,1.9c2.2-15.6,4.4-31.8,6.8-48.4c-2.5,0.3-4,0.4-5.4,0.6
	c-23.3,2.8-46.6,5.6-69.9,8.4c-31.1,3.7-62.1,7.4-93.2,11.2c-1.4,0.2-3.4,1.8-3.7,3C521.1,276,518.2,292,515.1,309.2z M534.5,489.9
	c-7.5-11.4-12.6-22.9-15.4-35.4c-8.4-37.7-16.9-75.3-24.9-113.1c-3.6-16.9-6.6-34-9.1-51c-1-6.9-0.2-14.1-0.2-21.7
	c-23.3,5.1-47.1,10.3-69.6,15.2c4.7,12.5,10.5,24.1,13.4,36.4c9.6,40.5,18.3,81.2,27.1,121.8c3.8,17.4,8.5,34.7,7.1,52.8
	c-0.3,3.4-0.6,6.8-1,10.9C486.3,500.4,510,495.2,534.5,489.9z"/>
<path fill="#004236" d="M894,625.6c-9.3,7.4-17.2,13.9-25.3,20c-1.5,1.1-4.1,1.1-6.1,1.1c-123.8,0-247.6,0-371.4,0
	c-10.8,0-21.6,0-34,0c4.2-4,7.1-7.3,10.5-10.1c11.1-9.5,22.3-19,33.6-28.3c1.3-1.1,3.7-2,5.2-1.6c31.1,7.7,62.8,9.6,94.7,9.9
	c54.6,0.5,108.9-2.6,162.3-14.8c14.2-3.2,27.7-9.3,41.5-13.9c1.9-0.6,4.4-1.4,5.9-0.7C838.2,599.7,865.5,612.4,894,625.6z"/>
<path fill="#004236" d="M941.5,623.4c14.1-9.1,27.2-18.5,41.2-26.6c22.9-13.2,46.3-25.6,69.6-38.2c1.7-0.9,4.6-1,6.4-0.2
	c45.8,21.3,87.5,48.7,123.5,84.4c1,1,1.9,2.1,3.6,3.9c-2.6,0-4.1,0-5.7,0c-64.8,0-129.6,0-194.5,0.1c-4.3,0-8-0.9-11.7-3.2
	c-9.1-5.9-18.4-11.4-27.6-17.1C944.8,625.7,943.5,624.8,941.5,623.4z"/>
<path fill="#004236" d="M837.9,570.2c12-9.7,24.2-18.8,35.4-28.8c8.8-7.9,16.3-17.1,24.6-25.5c1.4-1.4,3.9-2.6,5.8-2.3
	c39.5,5.4,78.1,14.7,115.6,28.5c0.9,0.3,1.8,0.7,3.2,1.3c-0.9,0.7-1.6,1.3-2.3,1.7c-34.5,18.2-67.4,39-99.3,61.4
	c-3.1,2.2-5.3,2.5-8.9,0.7c-23.9-12.1-47.9-23.9-71.9-35.9C839.3,571,838.6,570.6,837.9,570.2z"/>
<path fill="#004236" d="M534.9,584.3c15.6-8.2,30.9-16.9,46.8-24.4c14.9-7,30.2-13,45.6-18.8c4.4-1.6,9.8-1.4,14.5-0.8
	c43.9,5.3,86.5,16.4,128.2,31c0.8,0.3,1.5,0.7,2.2,1.7c-78.2,18.7-157.1,21.6-236.7,13.3C535.3,585.7,535.1,585,534.9,584.3z"/>
<path fill="#004236" d="M221.4,756.9c0-28,0-55.4,0-83.5c1.5-0.1,3.1-0.2,4.7-0.2c17.3,0,34.6-0.2,52,0.1c5.9,0.1,12,1,17.6,2.7
	c8,2.4,13.7,7.7,14.3,16.6c0.6,8.5-3.3,14-12.6,18.3c-0.7,0.3-1.4,0.7-2.7,1.5c2.7,1,4.8,1.7,6.9,2.5c7.2,2.8,12.1,7.6,13.1,15.5
	c1,8.2-2.2,14.6-8.6,19.6c-5.7,4.5-12.5,5.6-19.3,5.8c-16,0.6-31.9,0.8-47.9,1C233.2,757,227.4,756.9,221.4,756.9z M252.9,739.5
	c8.3-0.4,16-0.6,23.7-1.4c4.2-0.4,7-3.3,7.1-7.7c0.1-4.5-2.8-7.3-7-7.7c-7.8-0.7-15.7-0.8-23.8-1.2
	C252.9,727.8,252.9,733.1,252.9,739.5z M252.9,706.5c7.4-0.4,14.2-0.5,20.9-1.3c4-0.5,6-3.5,5.9-7.5c-0.1-3.8-2.3-6.5-6-6.9
	c-6.8-0.7-13.7-0.9-20.8-1.3C252.9,695.6,252.9,700.5,252.9,706.5z"/>
<path fill="#004236" d="M981,756.9c0-28.1,0-55.5,0-83.3c1.4-0.1,2.7-0.4,4-0.4c17.8,0,35.7-0.1,53.5,0c8.4,0.1,16.8,0.8,23.7,6.3
	c11.6,9.3,9.7,24.4-3.8,30.7c-1.2,0.6-2.4,1.1-4.4,2c2,0.7,3.3,1.2,4.5,1.6c10.9,3.6,16.1,10.2,15.8,19.8c-0.3,9.5-6.9,17.8-17,20.3
	c-5.8,1.4-11.8,2-17.8,2.6c-5.3,0.5-10.7,0.3-16,0.3C1009.6,756.9,995.6,756.9,981,756.9z M1012.2,739.4c8.1-0.4,15.7-0.4,23.3-1.1
	c4.3-0.4,7.5-3,7.6-7.8c0.1-4.9-3.2-7.5-7.5-7.8c-7.7-0.5-15.4-0.1-23.4-0.1C1012.2,727.8,1012.2,733.1,1012.2,739.4z M1012.3,706.4
	c7.2-0.4,14-0.5,20.7-1.2c3.9-0.4,6.1-3.2,6.1-7.3c0-4.2-2.4-6.8-6.3-7.2c-6.7-0.7-13.5-0.8-20.6-1.2
	C1012.3,695.4,1012.3,700.4,1012.3,706.4z"/>
<path fill="#004236" d="M600.3,673.5c10.2,0,20.1,0,30.5,0c0,10.1,0,20,0,31.4c2.2-1.9,3.6-2.9,4.8-4c8.5-8.2,16.9-16.5,25.7-24.5
	c1.8-1.7,4.8-2.9,7.3-3c11.8-0.3,23.5-0.1,35.9,0.9c-11.8,10.1-23.6,20.1-35.7,30.5c12.8,17.2,25.4,34.3,38.6,52.1
	c-12.8,0-24.6,0.1-36.4-0.1c-1.3,0-3-1.8-3.9-3.1c-5.7-8.8-11.2-17.8-16.7-26.6c-0.9-1.4-1.8-2.7-3-4.6c-5.3,4.5-10.4,8.8-15.2,13.3
	c-1,0.9-1.1,3-1.1,4.6c-0.1,5.3-0.1,10.6-0.1,16.3c-10.3,0-20.4,0-30.7,0C600.3,728.8,600.3,701.3,600.3,673.5z"/>
<path fill="#004236" d="M737.4,756.6c0-28,0-55.4,0-83.1c27.8,0,55.4,0,83.3,0c0,5.7,0,11.2,0,17.4c-17.3,0-34.5,0-52.4,0
	c0,4,0,7.5,0,10.9c0,3.5,2.7,2.7,4.7,2.7c12.5,0.1,25,0,37.5,0c2,0,4,0,6.3,0c0,5.6,0,10.8,0,16.7c-4,0-7.7,0-11.5,0
	c-10.8,0-21.7,0.1-32.5-0.1c-3.4-0.1-4.9,1-4.6,4.5c0.2,3.9,0.1,7.9,0.1,12.3c18.3,0,36.1,0,54.1,0c0,6.4,0,12.3,0,18.5
	C794.1,756.6,765.9,756.6,737.4,756.6z"/>
<path fill="#004236" d="M501.5,727.9c5.9,12.6,14.2,16.8,25.4,13.2c3.8-1.2,7.2-3.2,7.3-7.8c0.1-4.4-3.1-6.6-6.8-7.6
	c-9-2.5-18.1-4.3-27-6.9c-5-1.5-10.1-3.5-14.5-6.4c-12.2-7.9-12.7-23-1.1-31.8c3.7-2.8,8.3-5.1,12.9-6.3c14.1-3.6,28.4-3.5,42.6-0.1
	c11.3,2.7,18.9,9.4,21,22c-1.6,0.2-3,0.5-4.4,0.6c-5.3,0.3-10.7,0.4-16,0.8c-4.8,0.3-8.8,1.1-11.6-5.1c-2.6-6-15.9-7.4-21.2-3.2
	c-1.4,1.1-2.9,3.5-2.6,4.9c0.4,1.7,2.5,3.8,4.2,4.3c5.1,1.6,10.4,2.3,15.5,3.6c8,2.1,16.2,4,23.9,6.9c8.6,3.2,14.7,9.4,15.3,19.2
	c0.6,10-4.1,17.7-12.4,22.4c-5.8,3.3-12.5,5.5-19.1,6.6c-12.2,2-24.6,1.6-36.7-1.4c-11.2-2.7-18.9-9.5-22.4-20.6
	c-0.5-1.7-0.6-3.5-1-5.7C482.8,728.9,492.2,728.4,501.5,727.9z"/>
<path fill="#004236" d="M447.8,756.9c-10.1,0-20,0.1-29.9-0.1c-1,0-2.4-1.9-3-3.2c-4.3-10.6-4.3-10.6-15.6-10.6
	c-6.8,0-13.7,0.1-20.5-0.1c-3-0.1-4.3,1-5.3,3.8c-3.7,10.2-3.8,10.2-14.7,10.2c-6.6,0-13.2,0-20.6,0c3.5-7.8,6.8-15.1,10.1-22.3
	c8.7-19.1,17.5-38.1,26-57.2c1.4-3.2,3.2-4.3,6.7-4.2c8.7,0.3,17.3,0,26,0.2c1.6,0,3.9,1.3,4.5,2.6c12.2,26.3,24.1,52.6,36.1,79
	C447.8,755.3,447.7,755.9,447.8,756.9z M404.4,724.9c-3.8-10.1-7.3-19.5-10.9-28.9c-0.4,0.1-0.8,0.2-1.2,0.2
	c-3.5,9.4-7,18.8-10.6,28.6C389.4,724.9,396.5,724.9,404.4,724.9z"/>
<path fill="#004236" d="M1207.3,756.6c-10.6,0-21,0-31.8,0c-0.3-0.6-0.6-1.3-0.9-2c-4.5-11.7-4.5-11.7-17.3-11.7
	c-6.3,0-12.7,0.1-19-0.1c-2.9-0.1-4.4,0.9-5.5,3.7c-3.7,10.3-3.8,10.3-15,10.3c-6.5,0-12.9,0-20,0c0.7-1.8,1.2-3.2,1.7-4.5
	c11.3-24.8,22.7-49.6,33.9-74.5c1.6-3.6,3.5-4.9,7.5-4.7c8.5,0.3,17,0,25.5,0.2c1.5,0,3.8,1.3,4.4,2.7c12.2,26.3,24.1,52.6,36.1,79
	C1207.2,755.4,1207.2,755.9,1207.3,756.6z M1141.2,724.7c7.9,0,14.9,0,22.6,0c-3.8-10-7.3-19.5-11.3-30.3
	C1148.4,705.3,1144.9,714.8,1141.2,724.7z"/>
<path fill="#004236" d="M693.8,522.4c29-11.2,149.5-19.5,174.6-12c-5.3,5-10,10.3-15.5,14.4c-14,10.5-28.2,20.6-42.6,30.4
	c-1.9,1.3-5.8,1-8.2,0.1c-28.4-10.9-57.3-20.4-86.9-27.9C708.4,525.8,701.6,524.3,693.8,522.4z"/>
<path fill="#004236" d="M946.8,673.6c0,6.8,0,13.1,0,20.1c-10.5,0-20.9,0-31.7,0c0,21.3,0,41.9,0,62.9c-10.5,0-20.5,0-31.2,0
	c0-20.8,0-41.5,0-62.7c-10.9,0-21.1,0-31.7,0c0-7,0-13.4,0-20.2C883.6,673.6,915,673.6,946.8,673.6z"/>
<path fill="#004236" d="M1317.5,736.3c0,7.2,0,13.5,0,20.1c-26.5,0-52.9,0-79.7,0c0-27.5,0-55.2,0-83.1c10.2,0,20.2,0,30.7,0
	c0,20.9,0,41.6,0,63C1285.1,736.3,1301,736.3,1317.5,736.3z"/>
<path fill="#004236" d="M1351.5,673.2c9.7,0,18.9,0,28.2,0c3.6,0,2.7,2.8,2.7,4.7c0.1,17.3,0,34.6,0,52c0,2,0,3.9,0,6.5
	c4.5,0,8.5,0,12.4,0c10.8,0,21.7,0.1,32.5-0.1c3.2,0,4.5,1,4.3,4.3c-0.2,5.1-0.1,10.3-0.1,15.8c-26.9,0-53.4,0-80.1,0
	C1351.5,728.9,1351.5,701.5,1351.5,673.2z"/>
<path fill="#004236" d="M519.5,184c11.6-1.5,23.2-3,35.1-4.6c0,8.6,0.2,16.7-0.1,24.8c-0.2,5.9-3.9,9.6-9.7,10.4
	c-16.8,2.5-33.6,5-50.4,7c-6.3,0.8-9.4-1.6-9.6-8.1c-0.5-13.3-0.5-26.6,0.1-39.9c0.3-7.3,4.1-10.1,12.8-11.5
	c11.8-1.8,23.7-3.4,35.6-5.1c3.1-0.4,6.3-0.9,9.4-1.1c9.7-0.5,12.4,2.3,12,12.7c-1.8,0.6-3.8,1.4-5.8,2c-2.1,0.6-4.1,1.2-6.5,1.8
	c-0.3-2-0.6-3.7-1.1-6.1c-9.6,1.3-19.1,2.6-28.6,3.9c-4,0.5-8,0.9-11.8,1.8c-1.1,0.3-2.8,2-2.8,3c-0.2,11.5-0.1,22.9-0.1,35.2
	c7-0.9,13.5-1.7,20-2.6c6.4-0.9,12.8-2,19.3-2.7c3.2-0.3,4.9-1.4,4.6-4.9c-0.2-2.9,0-5.9,0-9.4c-7.8,1-14.8,1.9-22.3,2.9
	C519.5,190.5,519.5,187.5,519.5,184z"/>
<path fill="#004236" d="M846.3,198.5c0-19.5,0-38.7,0-57.8c20.2,0,40.1,0,60.2,0c0,3.6,0,6.5,0,9.6c-15.4,0-30.8,0-46.5,0
	c0,4.1,0,8.4,0,13.4c8.9,0,17.7,0,26.7,0c0,3.7,0,6.6,0,9.8c-8.9,0-17.6,0-26.7,0c0,5,0,9.7,0,15.5c9.4,0,18.5,0,27.6,0
	c5.5,0,11,0.1,16.5,0.4c5.1,0.2,2.9,4.2,3.3,6.8c0.3,2.3-0.1,4.2-3.3,4.1c-18.8-0.5-37.6-0.9-56.4-1.3
	C847.3,199,847,198.8,846.3,198.5z"/>
<path fill="#004236" d="M725.2,200.8c-4,0-7,0-10.5,0c-0.1-1.8-0.3-3.6-0.3-5.3c0-12.3-0.1-24.6,0.1-37c0-1.9,0.8-5.4,1.5-5.5
	c2.8-0.3,6.3-0.4,8.4,1c8.6,5.9,16.9,12.4,25.3,18.7c4.5,3.4,9,6.8,14.4,10.8c0-11.3,0-21.6,0-32.3c3.8,0,6.9,0,10.4,0
	c0,15.8,0,31.7,0,47.8c-4.3,1.1-7.9,0.7-11.5-2.3c-12.1-9.6-24.4-18.9-37.6-29.1C725.2,179.3,725.2,189.8,725.2,200.8z"/>
<path fill="#004236" d="M1172.7,225.6c-5.6,0.2-9.2-2.2-12.7-5.6c-10.6-10.4-21.4-20.5-32.2-30.7c-1.2-1.1-2.4-2.1-4.6-4
	c0,11.6,0,21.9,0,32.8c-3.7-0.5-6.6-0.9-9.9-1.3c0-16.1,0-32.2,0-50c4.5,2.4,8.6,3.8,11.5,6.4c11.2,10,22,20.4,33,30.6
	c1.2,1.1,2.4,2.1,4.5,3.8c0-11,0-21,0-31.8c3.9,0.6,7.1,1,10.5,1.5C1172.7,193.6,1172.7,209.5,1172.7,225.6z"/>
<path fill="#004236" d="M644.2,205.2c0-16.6,0-32.2,0-48.6c17.1-1,34.1-2,51.5-3.1c0,2.8,0,5.2,0,8.2c-13,0.8-26,1.6-39.5,2.4
	c0,3.5,0,6.9,0,10.8c7.4-0.4,14.8-0.7,22.6-1.1c0,2.8,0,5.2,0,7.8c-7.6,0.5-15,1.1-22.7,1.6c0,4,0,7.8,0,12.2
	c13.5-0.7,26.7-1.4,40.3-2.2c0,2.7,0,5.3,0,8.7C679.4,203,662.1,204.1,644.2,205.2z"/>
<path fill="#004236" d="M1100.5,166.5c-7.1,6.3-13,12.1-19.5,17.1c-5.4,4.1-8,8.8-7.1,15.6c0.5,4,0.1,8.2,0.1,12.8
	c-4.1-0.5-7.5-0.9-11.5-1.4c0-6.1,0.2-12-0.1-18c-0.1-2.3-1.1-4.9-2.5-6.6c-7.3-8.5-15-16.8-23.3-26.1c8.2,0.4,15.3-0.7,20.3,6.7
	c3.4,5,8,9.3,12.4,14.4c4.1-3.7,8.2-7,11.8-10.8c3.8-4.1,7.8-6.4,13.5-4.4C1095.9,166.4,1097.5,166.2,1100.5,166.5z"/>
<path fill="#004236" d="M993.2,204.7c0-16.4,0-32.1,0-48.6c3.8,0.3,7.3,0.6,11.6,0.9c0,4.6,0,9.1,0,13.5c0,7.5,0.1,15-0.1,22.5
	c-0.1,3,1.1,3.9,4,4.1c11.2,0.8,22.5,1.9,34,2.8c0,3,0,5.6,0,8.8C1026.2,207.4,1010,206.1,993.2,204.7z"/>
<path fill="#004236" d="M580.5,162.3c3.8-0.4,7.3-0.8,11.3-1.2c0,13.2,0,26.1,0,39.7c12.9-1.1,25.2-2.1,37.5-3.1
	c2.3,8,1.7,8.7-6.2,9.3c-14.1,1.2-28.1,2.5-42.6,3.9C580.5,194.6,580.5,178.7,580.5,162.3z"/>
<path fill="#004236" d="M929.3,201.2c0-16.3,0-31.9,0-47.9c3.7,0,7.2,0,11.5,0c0,13.1,0,26.1,0,39.5c13,0.8,25.4,1.5,38.1,2.3
	c0,3,0,5.6,0,8.7C962.3,202.9,946,202.1,929.3,201.2z"/>
<path fill="#004236" d="M804.2,369.5c7.1-21.3,14-41.8,21.2-63.6c7.6,21.9,14.7,42.5,22,63.6C832.9,369.5,819,369.5,804.2,369.5z"/>
</svg>
